<svg width="90" height="133" viewBox="0 0 90 133" fill="none" xmlns="http://www.w3.org/2000/svg">
<path d="M45 2.5H38.6214C35.958 2.5 33.6773 4.40843 33.2076 7.03014L13.7496 115.647C13.7069 115.885 13.4995 116.059 13.2574 116.059H10.3951C6.03474 116.059 2.50001 119.593 2.5 123.954L2.5 124.069C2.5 125.293 3.17028 126.361 4.164 126.926C4.59094 128.967 6.40077 130.5 8.56863 130.5H21.0392C23.0531 130.5 24.758 129.177 25.3323 127.353H45H64.6677C65.242 129.177 66.9469 130.5 68.9608 130.5H81.4314C83.5992 130.5 85.4091 128.967 85.836 126.926C86.8297 126.361 87.5 125.293 87.5 124.069V123.954C87.5 119.593 83.9653 116.059 79.6049 116.059H76.7426C76.5005 116.059 76.2931 115.885 76.2504 115.647L56.7924 7.03014C56.3227 4.40843 54.042 2.5 51.3786 2.5H45Z" fill="#E2C31F" stroke="black" stroke-width="5"/>
<path d="M32.4148 89V86.3409L38.6278 80.5881C39.1563 80.0767 39.5994 79.6165 39.9574 79.2074C40.321 78.7983 40.5966 78.3977 40.7841 78.0057C40.9716 77.608 41.0653 77.179 41.0653 76.7188C41.0653 76.2074 40.9489 75.767 40.7159 75.3977C40.483 75.0227 40.1648 74.7358 39.7614 74.5369C39.358 74.3324 38.9006 74.2301 38.3892 74.2301C37.8551 74.2301 37.3892 74.3381 36.9915 74.554C36.5938 74.7699 36.2869 75.0795 36.071 75.483C35.8551 75.8864 35.7472 76.3665 35.7472 76.9233H32.2443C32.2443 75.7812 32.5028 74.7898 33.0199 73.9489C33.5369 73.108 34.2614 72.4574 35.1932 71.9972C36.125 71.5369 37.1989 71.3068 38.4148 71.3068C39.6648 71.3068 40.7528 71.5284 41.679 71.9716C42.6108 72.4091 43.3352 73.017 43.8523 73.7955C44.3693 74.5739 44.6278 75.4659 44.6278 76.4716C44.6278 77.1307 44.4972 77.7812 44.2358 78.4233C43.9801 79.0653 43.5227 79.7784 42.8636 80.5625C42.2045 81.3409 41.2756 82.2756 40.0767 83.3665L37.5284 85.8636V85.983H44.858V89H32.4148ZM50.6001 75.9091L53.0036 80.4858L55.4666 75.9091H59.1911L55.3984 82.4545L59.2933 89H55.5859L53.0036 84.4744L50.4638 89H46.7138L50.6001 82.4545L46.8501 75.9091H50.6001Z" fill="black"/>
</svg>