<svg width="90" height="133" viewBox="0 0 90 133" fill="none" xmlns="http://www.w3.org/2000/svg">
<path d="M45 127.353H47.5H64.6677C65.242 129.177 66.9469 130.5 68.9608 130.5H81.4314C83.5992 130.5 85.4091 128.967 85.836 126.926C86.8297 126.361 87.5 125.293 87.5 124.069V123.954C87.5 119.593 83.9653 116.059 79.6049 116.059H76.7426C76.5005 116.059 76.2931 115.885 76.2504 115.647L56.7924 7.03014C56.3227 4.40843 54.042 2.5 51.3786 2.5H47.5H45H42.5H38.6214C35.958 2.5 33.6773 4.40843 33.2076 7.03015L13.7496 115.647C13.7069 115.885 13.4995 116.059 13.2574 116.059H10.3951C6.03474 116.059 2.50001 119.593 2.5 123.954L2.5 124.069C2.5 125.293 3.17028 126.361 4.164 126.926C4.59094 128.967 6.40077 130.5 8.56863 130.5H21.0392C23.0531 130.5 24.758 129.177 25.3323 127.353H42.5H45Z" fill="#E2C31F" stroke="black" stroke-width="5"/>
</svg>
