<svg width="90" height="90" viewBox="0 0 90 90" fill="none" xmlns="http://www.w3.org/2000/svg">
<path d="M45 87.5C59.9157 87.5 70.7763 84.862 77.8175 77.844C84.861 70.8236 87.5 60.0015 87.5 45.1657C87.5 30.3277 84.86 19.4334 77.829 12.3333C70.7922 5.22717 59.932 2.5 45 2.5C30.0679 2.5 19.2078 5.22717 12.1709 12.3333C5.13999 19.4334 2.5 30.3277 2.5 45.1657C2.5 60.0015 5.13903 70.8236 12.1825 77.844C19.2236 84.862 30.0842 87.5 45 87.5Z" fill="#8546ED" stroke="black" stroke-width="5"/>
<path d="M32.4656 54V51.3409L38.6786 45.5881C39.207 45.0767 39.6502 44.6165 40.0082 44.2074C40.3718 43.7983 40.6474 43.3977 40.8349 43.0057C41.0224 42.608 41.1161 42.179 41.1161 41.7188C41.1161 41.2074 40.9996 40.767 40.7667 40.3977C40.5337 40.0227 40.2156 39.7358 39.8121 39.5369C39.4087 39.3324 38.9513 39.2301 38.44 39.2301C37.9059 39.2301 37.44 39.3381 37.0423 39.554C36.6445 39.7699 36.3377 40.0795 36.1218 40.483C35.9059 40.8864 35.7979 41.3665 35.7979 41.9233H32.2951C32.2951 40.7812 32.5536 39.7898 33.0707 38.9489C33.5877 38.108 34.3121 37.4574 35.244 36.9972C36.1758 36.5369 37.2496 36.3068 38.4656 36.3068C39.7156 36.3068 40.8036 36.5284 41.7298 36.9716C42.6616 37.4091 43.386 38.017 43.9031 38.7955C44.4201 39.5739 44.6786 40.4659 44.6786 41.4716C44.6786 42.1307 44.5479 42.7812 44.2866 43.4233C44.0309 44.0653 43.5735 44.7784 42.9144 45.5625C42.2553 46.3409 41.3263 47.2756 40.1275 48.3665L37.5792 50.8636V50.983H44.9087V54H32.4656ZM50.6509 40.9091L53.0543 45.4858L55.5174 40.9091H59.2418L55.4492 47.4545L59.3441 54H55.6367L53.0543 49.4744L50.5146 54H46.7646L50.6509 47.4545L46.9009 40.9091H50.6509Z" fill="white"/>
</svg>