<svg width="80" height="109" viewBox="0 0 80 109" fill="none" xmlns="http://www.w3.org/2000/svg">
<path d="M53.2556 2.8684C53.2556 2.30558 53.0906 1.75519 52.7813 1.28578C52.472 0.816379 52.032 0.448701 51.516 0.228546C51.0001 0.00839147 50.431 -0.0545122 49.8797 0.0476705C49.3284 0.149853 48.8192 0.412607 48.4155 0.803205L38.2555 10.6129C23.1308 25.2136 10.3507 42.0786 0.369729 60.6077C0.124143 61.044 -0.00330947 61.5372 6.53185e-05 62.0383C0.0034401 62.5394 0.137524 63.0309 0.388964 63.4638C0.640403 63.8967 1.00042 64.2559 1.43317 64.5057C1.86592 64.7554 2.35629 64.887 2.85545 64.8873H27.4841V106.128C27.4834 106.684 27.6439 107.229 27.9461 107.696C28.2483 108.162 28.6791 108.53 29.186 108.755C29.693 108.98 30.2542 109.052 30.8012 108.963C31.3482 108.873 31.8575 108.626 32.2669 108.251L36.8098 104.092C52.7226 89.5395 66.2268 72.5376 76.8156 53.7238L79.627 48.7329C79.874 48.2965 80.0026 47.8026 80 47.3007C79.9973 46.7987 79.8635 46.3063 79.6119 45.8725C79.3603 45.4388 78.9997 45.0789 78.5662 44.8288C78.1326 44.5788 77.6413 44.4473 77.1413 44.4476H53.2556V2.8684Z" fill="#52FF00"/>
</svg>
